<svg xmlns="http://www.w3.org/2000/svg" xmlns:xlink="http://www.w3.org/1999/xlink" xml:space="preserve" version="1.1" style="shape-rendering:geometricPrecision;text-rendering:geometricPrecision;image-rendering:optimizeQuality;" viewBox="0 0 303 303" x="0px" y="0px" fill-rule="evenodd" clip-rule="evenodd"><defs><style type="text/css">
   
    .fil0 {fill: #334E5C}
   
  </style></defs><g><path class="fil0" d="M178 103l25 -18c-6,-9 -9,-19 -9,-31 0,-30 24,-54 54,-54 31,0 55,24 55,54 0,31 -24,55 -55,55 -10,0 -20,-3 -28,-8l-19 26 0 52 17 23c8,-6 19,-9 30,-9 30,0 54,25 54,55 0,30 -24,54 -54,54 -30,0 -55,-24 -55,-54 0,-11 4,-21 9,-30l-26 -18 -51 0 -23 17c6,9 10,19 10,31 0,30 -25,54 -55,54 -30,0 -54,-24 -54,-54 0,-30 24,-55 54,-55 11,0 21,3 29,9l18 -25 0 -53 -19 -24c-9,5 -19,9 -31,9 -30,0 -54,-24 -54,-55 0,-30 24,-54 54,-54 31,0 55,24 55,54 0,11 -3,22 -9,30l27 19 51 0zm46 107l17 24 13 13c1,3 -5,9 -7,8l-14 -15 -23 -16c-4,7 -7,15 -7,24 0,24 20,44 45,44 24,0 44,-20 44,-44 0,-25 -20,-45 -44,-45 -9,0 -17,3 -24,7zm-13 -131l22 -16 13 -13c3,-3 9,5 8,7l-13 14 -15 22c6,4 14,6 22,6 25,0 45,-20 45,-45 0,-24 -20,-44 -45,-44 -24,0 -44,20 -44,44 0,9 3,18 7,25zm-132 13l-17 -23 -13 -12c-1,-2 5,-8 8,-7l13 13 22 16c4,-7 7,-16 7,-25 0,-24 -20,-44 -45,-44 -24,0 -44,20 -44,44 0,25 20,45 44,45 10,0 18,-3 25,-7zm15 131l-24 17 -13 15c-3,1 -9,-5 -8,-8l13 -13 18 -24c-7,-4 -14,-7 -23,-7 -24,0 -44,20 -44,45 0,25 20,44 44,44 25,0 45,-19 45,-44 0,-9 -3,-18 -8,-25z"/></g></svg>